# xmcd
#
# Track frame offsets:
#	150
#	9852
#	24025
#	39765
#	50360
#	63717
#	85112
#	96172
#	113675
#	130670
#	143252
#	158020
#	172680
#	187205
#	203370
#	215190
#	229450
#	240265
#	254732
#
# Disc length: 3639
#
# Revision: 3
# Processed by: cddbd v1.5.1PL0 Copyright (c) Steve Scherf et al.
# Submitted via: CDex 1.50
# Normalized: r2:DSETVAR1,TDELIM( - )
#
DISCID=e90e3513
DTITLE=Various Artist - Moonlight Jazz Box III
DYEAR=1900
DGENRE=Jazz
TTITLE0=Vikki Carr - Unforgettable
TTITLE1=Mel Torme - Skylark
TTITLE2=Shirley Bassey - Cry Me A River
TTITLE3=Vic Domone - Girl From Ipanema
TTITLE4=Jo Stafford - La Vie En Rose
TTITLE5=Nat King Cole - A Nightingale Sang In Berkeley Square
TTITLE6=Kelly Smith - Sentimental Journey
TTITLE7=Tony Bennett - Maybe In September
TTITLE8=Nina Simone - Cotton-Eyed Joe
TTITLE9=George Shearing - Stairway To The Stars
TTITLE10=Sarah Vaughan - Black Coffee
TTITLE11=Diango Reinhardt - Georgia On My Mind
TTITLE12=Dinah Washington - He's My Guy
TTITLE13=Dick Haymes - The Very Thought Of You
TTITLE14=Peggy Lee - I'm Beginning To See The Light
TTITLE15=Bobby Darin - Mac The Knife
TTITLE16=Kay Starr - Lazy River
TTITLE17=Louis Prima - Come Back To Sorrento
TTITLE18=Acker Bilk - Try A Little Tenderness
EXTD=
EXTT0=
EXTT1=
EXTT2=
EXTT3=
EXTT4=
EXTT5=
EXTT6=
EXTT7=
EXTT8=
EXTT9=
EXTT10=
EXTT11=
EXTT12=
EXTT13=
EXTT14=
EXTT15=
EXTT16=
EXTT17=
EXTT18=
PLAYORDER=
